<svg xmlns="http://www.w3.org/2000/svg" viewBox="0 0 900 760" font-family="sans-serif"><rect width="900" height="760" fill="#fff"/>
<text x="450" y="52" font-size="30" font-weight="700" text-anchor="middle" fill="#202124">실손24 청구 7단계</text>
<text x="450" y="88" font-size="19" text-anchor="middle" fill="#5f6368">앱 또는 www.silson24.or.kr · 금융위원회 안내(2025년 10월) 기준</text>
<rect x="170" y="120" width="560" height="64" rx="14" fill="#f7f9fc" stroke="#1a73e8" stroke-width="2.5"/>
<circle cx="215" cy="152" r="22" fill="#1a73e8"/><text x="215" y="160" font-size="22" font-weight="700" fill="#fff" text-anchor="middle">1</text>
<text x="260" y="161" font-size="25" fill="#202124" font-weight="600">로그인 또는 본인인증</text>
<path d="M450 186 l0 14" stroke="#9aa0a6" stroke-width="3"/>
<rect x="170" y="204" width="560" height="64" rx="14" fill="#f7f9fc" stroke="#1a73e8" stroke-width="2.5"/>
<circle cx="215" cy="236" r="22" fill="#1a73e8"/><text x="215" y="244" font-size="22" font-weight="700" fill="#fff" text-anchor="middle">2</text>
<text x="260" y="245" font-size="25" fill="#202124" font-weight="600">보험계약 조회·선택</text>
<path d="M450 270 l0 14" stroke="#9aa0a6" stroke-width="3"/>
<rect x="170" y="288" width="560" height="64" rx="14" fill="#f7f9fc" stroke="#1a73e8" stroke-width="2.5"/>
<circle cx="215" cy="320" r="22" fill="#1a73e8"/><text x="215" y="328" font-size="22" font-weight="700" fill="#fff" text-anchor="middle">3</text>
<text x="260" y="329" font-size="25" fill="#202124" font-weight="600">병원 선택</text>
<path d="M450 354 l0 14" stroke="#9aa0a6" stroke-width="3"/>
<rect x="170" y="372" width="560" height="64" rx="14" fill="#f7f9fc" stroke="#1a73e8" stroke-width="2.5"/>
<circle cx="215" cy="404" r="22" fill="#1a73e8"/><text x="215" y="412" font-size="22" font-weight="700" fill="#fff" text-anchor="middle">4</text>
<text x="260" y="413" font-size="25" fill="#202124" font-weight="600">진료일자·내역 선택</text>
<path d="M450 438 l0 14" stroke="#9aa0a6" stroke-width="3"/>
<rect x="170" y="456" width="560" height="64" rx="14" fill="#f7f9fc" stroke="#1a73e8" stroke-width="2.5"/>
<circle cx="215" cy="488" r="22" fill="#1a73e8"/><text x="215" y="496" font-size="22" font-weight="700" fill="#fff" text-anchor="middle">5</text>
<text x="260" y="497" font-size="25" fill="#202124" font-weight="600">청구서 작성</text>
<path d="M450 522 l0 14" stroke="#9aa0a6" stroke-width="3"/>
<rect x="170" y="540" width="560" height="64" rx="14" fill="#f7f9fc" stroke="#1a73e8" stroke-width="2.5"/>
<circle cx="215" cy="572" r="22" fill="#1a73e8"/><text x="215" y="580" font-size="22" font-weight="700" fill="#fff" text-anchor="middle">6</text>
<text x="260" y="581" font-size="25" fill="#202124" font-weight="600">청구내용 확인·전송</text>
<path d="M450 606 l0 14" stroke="#9aa0a6" stroke-width="3"/>
<rect x="170" y="624" width="560" height="64" rx="14" fill="#f7f9fc" stroke="#1a73e8" stroke-width="2.5"/>
<circle cx="215" cy="656" r="22" fill="#1a73e8"/><text x="215" y="664" font-size="22" font-weight="700" fill="#fff" text-anchor="middle">7</text>
<text x="260" y="665" font-size="25" fill="#202124" font-weight="600">청구 완료</text>

</svg>